<mxfile host="65bd71144e">
    <diagram id="syNygfTc7iQa30JgWkQB" name="Page-1">
        <mxGraphModel dx="2212" dy="671" grid="0" gridSize="10" guides="1" tooltips="1" connect="1" arrows="1" fold="1" page="0" pageScale="1" pageWidth="827" pageHeight="1169" math="0" shadow="0">
            <root>
                <mxCell id="0"/>
                <mxCell id="1" parent="0"/>
                <mxCell id="12" style="edgeStyle=none;html=1;exitX=0.5;exitY=1;exitDx=0;exitDy=0;entryX=0.5;entryY=0;entryDx=0;entryDy=0;" edge="1" parent="1" source="2" target="5">
                    <mxGeometry relative="1" as="geometry"/>
                </mxCell>
                <mxCell id="2" value="start" style="rounded=1;whiteSpace=wrap;html=1;" vertex="1" parent="1">
                    <mxGeometry x="354" y="10" width="120" height="30" as="geometry"/>
                </mxCell>
                <mxCell id="10" style="edgeStyle=none;html=1;exitX=0.5;exitY=1;exitDx=0;exitDy=0;entryX=0.5;entryY=0;entryDx=0;entryDy=0;" edge="1" parent="1" source="3" target="4">
                    <mxGeometry relative="1" as="geometry"/>
                </mxCell>
                <mxCell id="3" value="input i" style="shape=parallelogram;perimeter=parallelogramPerimeter;whiteSpace=wrap;html=1;fixedSize=1;" vertex="1" parent="1">
                    <mxGeometry x="365" y="110" width="104" height="30" as="geometry"/>
                </mxCell>
                <mxCell id="9" style="edgeStyle=none;html=1;exitX=0;exitY=0.5;exitDx=0;exitDy=0;entryX=1;entryY=0.5;entryDx=0;entryDy=0;" edge="1" parent="1" source="4" target="6">
                    <mxGeometry relative="1" as="geometry"/>
                </mxCell>
                <mxCell id="13" style="edgeStyle=none;html=1;exitX=1;exitY=0.5;exitDx=0;exitDy=0;entryX=0.5;entryY=0;entryDx=0;entryDy=0;" edge="1" parent="1" source="4" target="329">
                    <mxGeometry relative="1" as="geometry">
                        <mxPoint x="700" y="240" as="targetPoint"/>
                        <Array as="points">
                            <mxPoint x="550" y="210"/>
                            <mxPoint x="700" y="210"/>
                        </Array>
                    </mxGeometry>
                </mxCell>
                <mxCell id="4" value="if&amp;nbsp; i &amp;gt;= 604800" style="shape=hexagon;perimeter=hexagonPerimeter2;whiteSpace=wrap;html=1;fixedSize=1;" vertex="1" parent="1">
                    <mxGeometry x="357" y="170" width="120" height="80" as="geometry"/>
                </mxCell>
                <mxCell id="11" style="edgeStyle=none;html=1;exitX=0.5;exitY=1;exitDx=0;exitDy=0;entryX=0.5;entryY=0;entryDx=0;entryDy=0;" edge="1" parent="1" source="5" target="3">
                    <mxGeometry relative="1" as="geometry"/>
                </mxCell>
                <mxCell id="5" value="set a,b,c,d,e,f,x,i" style="rounded=0;whiteSpace=wrap;html=1;" vertex="1" parent="1">
                    <mxGeometry x="360" y="60" width="114" height="30" as="geometry"/>
                </mxCell>
                <mxCell id="14" style="edgeStyle=none;html=1;exitX=0;exitY=0.5;exitDx=0;exitDy=0;entryX=0.5;entryY=0;entryDx=0;entryDy=0;" edge="1" parent="1" source="6" target="7">
                    <mxGeometry relative="1" as="geometry">
                        <Array as="points">
                            <mxPoint x="120" y="210"/>
                        </Array>
                    </mxGeometry>
                </mxCell>
                <mxCell id="6" value="a = i / 604800&lt;br&gt;x = i % 604800" style="rounded=0;whiteSpace=wrap;html=1;" vertex="1" parent="1">
                    <mxGeometry x="190" y="190" width="100" height="40" as="geometry"/>
                </mxCell>
                <mxCell id="29" style="edgeStyle=none;html=1;entryX=0.5;entryY=0;entryDx=0;entryDy=0;" edge="1" parent="1" source="7" target="21">
                    <mxGeometry relative="1" as="geometry">
                        <mxPoint x="-80" y="360" as="targetPoint"/>
                        <Array as="points">
                            <mxPoint x="-80" y="315"/>
                        </Array>
                    </mxGeometry>
                </mxCell>
                <mxCell id="30" value="" style="edgeStyle=none;html=1;entryX=0.375;entryY=0;entryDx=0;entryDy=0;" edge="1" parent="1" source="7" target="129">
                    <mxGeometry relative="1" as="geometry">
                        <mxPoint x="-27" y="360" as="targetPoint"/>
                        <Array as="points">
                            <mxPoint x="-30" y="330"/>
                        </Array>
                    </mxGeometry>
                </mxCell>
                <mxCell id="7" value="x &amp;gt;= 86400" style="shape=hexagon;perimeter=hexagonPerimeter2;whiteSpace=wrap;html=1;fixedSize=1;" vertex="1" parent="1">
                    <mxGeometry x="-189" y="300" width="100" height="30" as="geometry"/>
                </mxCell>
                <mxCell id="19" value="a = week&lt;br&gt;b=days&amp;nbsp;&lt;br&gt;c=Hour&lt;br&gt;d=Minut&lt;br&gt;left true&lt;br&gt;right false" style="whiteSpace=wrap;html=1;aspect=fixed;" vertex="1" parent="1">
                    <mxGeometry x="31" y="2" width="160" height="160" as="geometry"/>
                </mxCell>
                <mxCell id="34" style="edgeStyle=none;html=1;exitX=0;exitY=0.5;exitDx=0;exitDy=0;entryX=1;entryY=0.5;entryDx=0;entryDy=0;" edge="1" parent="1" source="21" target="31">
                    <mxGeometry relative="1" as="geometry"/>
                </mxCell>
                <mxCell id="21" value="b=x/86400&lt;br&gt;x=x%86400" style="whiteSpace=wrap;html=1;" vertex="1" parent="1">
                    <mxGeometry x="-360" y="360" width="90" height="40" as="geometry"/>
                </mxCell>
                <mxCell id="25" value="y&lt;br&gt;" style="text;html=1;align=center;verticalAlign=middle;resizable=0;points=[];autosize=1;strokeColor=none;fillColor=none;" vertex="1" parent="1">
                    <mxGeometry x="320" y="190" width="20" height="20" as="geometry"/>
                </mxCell>
                <mxCell id="26" value="n&lt;br&gt;" style="text;html=1;align=center;verticalAlign=middle;resizable=0;points=[];autosize=1;strokeColor=none;fillColor=none;" vertex="1" parent="1">
                    <mxGeometry x="550" y="190" width="20" height="20" as="geometry"/>
                </mxCell>
                <mxCell id="35" style="edgeStyle=none;html=1;exitX=1;exitY=0.75;exitDx=0;exitDy=0;entryX=0.5;entryY=0;entryDx=0;entryDy=0;" edge="1" parent="1" source="31" target="112">
                    <mxGeometry relative="1" as="geometry">
                        <mxPoint x="-130" y="520" as="targetPoint"/>
                    </mxGeometry>
                </mxCell>
                <mxCell id="36" style="edgeStyle=none;html=1;entryX=0.5;entryY=0;entryDx=0;entryDy=0;" edge="1" parent="1" source="31" target="33">
                    <mxGeometry relative="1" as="geometry"/>
                </mxCell>
                <mxCell id="31" value="x &amp;gt;= 3600" style="shape=hexagon;perimeter=hexagonPerimeter2;whiteSpace=wrap;html=1;fixedSize=1;" vertex="1" parent="1">
                    <mxGeometry x="-533" y="480" width="100" height="40" as="geometry"/>
                </mxCell>
                <mxCell id="38" value="" style="edgeStyle=none;html=1;" edge="1" parent="1" source="33" target="37">
                    <mxGeometry relative="1" as="geometry"/>
                </mxCell>
                <mxCell id="33" value="c = x/3600&lt;br&gt;x = x%3600" style="whiteSpace=wrap;html=1;" vertex="1" parent="1">
                    <mxGeometry x="-690" y="560" width="120" height="60" as="geometry"/>
                </mxCell>
                <mxCell id="41" style="edgeStyle=none;html=1;" edge="1" parent="1" source="37" target="39">
                    <mxGeometry relative="1" as="geometry">
                        <mxPoint x="-740" y="890" as="targetPoint"/>
                    </mxGeometry>
                </mxCell>
                <mxCell id="42" style="edgeStyle=none;html=1;entryX=0.611;entryY=0.019;entryDx=0;entryDy=0;entryPerimeter=0;" edge="1" parent="1" source="37" target="40">
                    <mxGeometry relative="1" as="geometry">
                        <mxPoint x="-500" y="890" as="targetPoint"/>
                    </mxGeometry>
                </mxCell>
                <mxCell id="37" value="x &amp;gt;= 60" style="shape=hexagon;perimeter=hexagonPerimeter2;whiteSpace=wrap;html=1;fixedSize=1;" vertex="1" parent="1">
                    <mxGeometry x="-750" y="695" width="120" height="80" as="geometry"/>
                </mxCell>
                <mxCell id="45" style="edgeStyle=none;html=1;entryX=0;entryY=0.5;entryDx=0;entryDy=0;" edge="1" parent="1" source="39" target="47">
                    <mxGeometry relative="1" as="geometry">
                        <mxPoint x="-593" y="890" as="targetPoint"/>
                        <Array as="points">
                            <mxPoint x="-460" y="1370"/>
                        </Array>
                    </mxGeometry>
                </mxCell>
                <mxCell id="39" value="c = x / 60&lt;br&gt;d = x % 60&lt;br&gt;" style="whiteSpace=wrap;html=1;" vertex="1" parent="1">
                    <mxGeometry x="-820" y="880" width="120" height="60" as="geometry"/>
                </mxCell>
                <mxCell id="111" style="edgeStyle=none;html=1;entryX=0;entryY=0.25;entryDx=0;entryDy=0;" edge="1" parent="1" source="40" target="47">
                    <mxGeometry relative="1" as="geometry">
                        <Array as="points">
                            <mxPoint x="-280" y="1220"/>
                        </Array>
                    </mxGeometry>
                </mxCell>
                <mxCell id="40" value="d = x" style="whiteSpace=wrap;html=1;" vertex="1" parent="1">
                    <mxGeometry x="-620" y="880" width="120" height="60" as="geometry"/>
                </mxCell>
                <mxCell id="110" style="edgeStyle=none;html=1;" edge="1" parent="1" source="47" target="48">
                    <mxGeometry relative="1" as="geometry"/>
                </mxCell>
                <mxCell id="47" value="a = 1" style="shape=hexagon;perimeter=hexagonPerimeter2;whiteSpace=wrap;html=1;fixedSize=1;" vertex="1" parent="1">
                    <mxGeometry x="597" y="1350" width="230" height="120" as="geometry"/>
                </mxCell>
                <mxCell id="87" style="edgeStyle=none;html=1;exitX=1;exitY=0.75;exitDx=0;exitDy=0;entryX=0;entryY=0.25;entryDx=0;entryDy=0;" edge="1" parent="1" source="48" target="49">
                    <mxGeometry relative="1" as="geometry">
                        <mxPoint x="436" y="1860" as="sourcePoint"/>
                    </mxGeometry>
                </mxCell>
                <mxCell id="89" value="" style="edgeStyle=none;html=1;entryX=0.5;entryY=0;entryDx=0;entryDy=0;exitX=0;exitY=0.5;exitDx=0;exitDy=0;" edge="1" parent="1" source="48" target="90">
                    <mxGeometry relative="1" as="geometry">
                        <mxPoint x="347.42857142857065" y="1900" as="sourcePoint"/>
                        <mxPoint x="226" y="2070" as="targetPoint"/>
                    </mxGeometry>
                </mxCell>
                <mxCell id="48" value="b = 1" style="shape=hexagon;perimeter=hexagonPerimeter2;whiteSpace=wrap;html=1;fixedSize=1;" vertex="1" parent="1">
                    <mxGeometry x="500" y="1580" width="120" height="80" as="geometry"/>
                </mxCell>
                <mxCell id="60" value="" style="edgeStyle=none;html=1;" edge="1" parent="1" source="49" target="50">
                    <mxGeometry relative="1" as="geometry"/>
                </mxCell>
                <mxCell id="74" value="" style="edgeStyle=none;html=1;entryX=0.5;entryY=0;entryDx=0;entryDy=0;" edge="1" parent="1" source="49" target="75">
                    <mxGeometry relative="1" as="geometry">
                        <mxPoint x="366" y="2180" as="targetPoint"/>
                    </mxGeometry>
                </mxCell>
                <mxCell id="49" value="c = 1" style="shape=hexagon;perimeter=hexagonPerimeter2;whiteSpace=wrap;html=1;fixedSize=1;" vertex="1" parent="1">
                    <mxGeometry x="1150" y="1674" width="120" height="80" as="geometry"/>
                </mxCell>
                <mxCell id="55" style="edgeStyle=none;html=1;entryX=0.5;entryY=0;entryDx=0;entryDy=0;" edge="1" parent="1" source="50" target="51">
                    <mxGeometry relative="1" as="geometry">
                        <Array as="points"/>
                    </mxGeometry>
                </mxCell>
                <mxCell id="59" style="edgeStyle=none;html=1;entryX=0.5;entryY=0;entryDx=0;entryDy=0;" edge="1" parent="1" source="50" target="58">
                    <mxGeometry relative="1" as="geometry">
                        <mxPoint x="1586" y="2355" as="targetPoint"/>
                        <Array as="points">
                            <mxPoint x="1890" y="1970"/>
                        </Array>
                    </mxGeometry>
                </mxCell>
                <mxCell id="50" value="d = 1" style="shape=hexagon;perimeter=hexagonPerimeter2;whiteSpace=wrap;html=1;fixedSize=1;" vertex="1" parent="1">
                    <mxGeometry x="1698" y="1820" width="112" height="70" as="geometry"/>
                </mxCell>
                <mxCell id="72" style="edgeStyle=none;html=1;" edge="1" parent="1" source="51" target="54">
                    <mxGeometry relative="1" as="geometry">
                        <Array as="points">
                            <mxPoint x="1376" y="2860"/>
                            <mxPoint x="1266" y="3180"/>
                        </Array>
                    </mxGeometry>
                </mxCell>
                <mxCell id="51" value="a week b day c hour d Minuts" style="shape=parallelogram;perimeter=parallelogramPerimeter;whiteSpace=wrap;html=1;fixedSize=1;" vertex="1" parent="1">
                    <mxGeometry x="1420" y="2030" width="210" height="110" as="geometry"/>
                </mxCell>
                <mxCell id="54" value="END" style="ellipse;whiteSpace=wrap;html=1;" vertex="1" parent="1">
                    <mxGeometry x="652" y="3260" width="120" height="60" as="geometry"/>
                </mxCell>
                <mxCell id="83" style="edgeStyle=none;html=1;entryX=0.5;entryY=0;entryDx=0;entryDy=0;" edge="1" parent="1" source="58" target="54">
                    <mxGeometry relative="1" as="geometry">
                        <mxPoint x="1056" y="2330" as="targetPoint"/>
                        <Array as="points">
                            <mxPoint x="1616" y="2940"/>
                            <mxPoint x="1446" y="3250"/>
                        </Array>
                    </mxGeometry>
                </mxCell>
                <mxCell id="58" value="a week b day&amp;nbsp; c hour d Minut" style="shape=parallelogram;perimeter=parallelogramPerimeter;whiteSpace=wrap;html=1;fixedSize=1;" vertex="1" parent="1">
                    <mxGeometry x="1790" y="2030" width="210" height="110" as="geometry"/>
                </mxCell>
                <mxCell id="79" value="" style="edgeStyle=none;html=1;" edge="1" parent="1" source="75" target="78">
                    <mxGeometry relative="1" as="geometry"/>
                </mxCell>
                <mxCell id="81" value="" style="edgeStyle=none;html=1;" edge="1" parent="1" source="75" target="80">
                    <mxGeometry relative="1" as="geometry"/>
                </mxCell>
                <mxCell id="75" value="d = 1" style="shape=hexagon;perimeter=hexagonPerimeter2;whiteSpace=wrap;html=1;fixedSize=1;" vertex="1" parent="1">
                    <mxGeometry x="970" y="1840" width="120" height="80" as="geometry"/>
                </mxCell>
                <mxCell id="86" style="edgeStyle=none;html=1;" edge="1" parent="1" source="78" target="54">
                    <mxGeometry relative="1" as="geometry">
                        <Array as="points">
                            <mxPoint x="926" y="2560"/>
                            <mxPoint x="1016" y="2880"/>
                            <mxPoint x="926" y="3080"/>
                        </Array>
                    </mxGeometry>
                </mxCell>
                <mxCell id="78" value="a week b day &lt;br&gt;c hour d Minuts" style="shape=parallelogram;perimeter=parallelogramPerimeter;whiteSpace=wrap;html=1;fixedSize=1;" vertex="1" parent="1">
                    <mxGeometry x="790" y="2020" width="170" height="60" as="geometry"/>
                </mxCell>
                <mxCell id="85" style="edgeStyle=none;html=1;entryX=0.75;entryY=0.167;entryDx=0;entryDy=0;entryPerimeter=0;" edge="1" parent="1" source="80" target="54">
                    <mxGeometry relative="1" as="geometry">
                        <Array as="points">
                            <mxPoint x="1186" y="2750"/>
                            <mxPoint x="1156" y="3100"/>
                        </Array>
                    </mxGeometry>
                </mxCell>
                <mxCell id="80" value="A week b day c hours d Minut" style="shape=parallelogram;perimeter=parallelogramPerimeter;whiteSpace=wrap;html=1;fixedSize=1;" vertex="1" parent="1">
                    <mxGeometry x="1100" y="2009" width="194" height="60" as="geometry"/>
                </mxCell>
                <mxCell id="99" style="edgeStyle=none;html=1;exitX=1;exitY=0.5;exitDx=0;exitDy=0;entryX=0.5;entryY=0;entryDx=0;entryDy=0;" edge="1" parent="1" source="90" target="94">
                    <mxGeometry relative="1" as="geometry">
                        <mxPoint x="256" y="2040" as="targetPoint"/>
                    </mxGeometry>
                </mxCell>
                <mxCell id="104" style="edgeStyle=none;html=1;entryX=0.5;entryY=0;entryDx=0;entryDy=0;" edge="1" parent="1" source="90" target="91">
                    <mxGeometry relative="1" as="geometry"/>
                </mxCell>
                <mxCell id="90" value="c = 1" style="shape=hexagon;perimeter=hexagonPerimeter2;whiteSpace=wrap;html=1;fixedSize=1;" vertex="1" parent="1">
                    <mxGeometry x="-24" y="1770" width="120" height="70" as="geometry"/>
                </mxCell>
                <mxCell id="105" style="edgeStyle=none;html=1;entryX=0.663;entryY=0.029;entryDx=0;entryDy=0;entryPerimeter=0;" edge="1" parent="1" source="91" target="93">
                    <mxGeometry relative="1" as="geometry"/>
                </mxCell>
                <mxCell id="106" style="edgeStyle=none;html=1;entryX=0.557;entryY=0.01;entryDx=0;entryDy=0;entryPerimeter=0;" edge="1" parent="1" source="91" target="92">
                    <mxGeometry relative="1" as="geometry"/>
                </mxCell>
                <mxCell id="91" value="d = 1" style="shape=hexagon;perimeter=hexagonPerimeter2;whiteSpace=wrap;html=1;fixedSize=1;" vertex="1" parent="1">
                    <mxGeometry x="-114" y="1929" width="120" height="80" as="geometry"/>
                </mxCell>
                <mxCell id="108" style="edgeStyle=none;html=1;entryX=0.5;entryY=0;entryDx=0;entryDy=0;" edge="1" parent="1" source="92" target="54">
                    <mxGeometry relative="1" as="geometry">
                        <mxPoint x="-453.99999999999955" y="3210" as="targetPoint"/>
                        <Array as="points">
                            <mxPoint x="-44" y="2950"/>
                        </Array>
                    </mxGeometry>
                </mxCell>
                <mxCell id="92" value="a week b days c hour d Minuts" style="shape=parallelogram;perimeter=parallelogramPerimeter;whiteSpace=wrap;html=1;fixedSize=1;" vertex="1" parent="1">
                    <mxGeometry x="-290" y="2080" width="190" height="60" as="geometry"/>
                </mxCell>
                <mxCell id="107" style="edgeStyle=none;html=1;" edge="1" parent="1" source="93" target="54">
                    <mxGeometry relative="1" as="geometry">
                        <Array as="points">
                            <mxPoint x="196" y="2960"/>
                        </Array>
                    </mxGeometry>
                </mxCell>
                <mxCell id="93" value="A week b hours c minuts d second" style="shape=parallelogram;perimeter=parallelogramPerimeter;whiteSpace=wrap;html=1;fixedSize=1;" vertex="1" parent="1">
                    <mxGeometry x="-34" y="2050" width="173" height="60" as="geometry"/>
                </mxCell>
                <mxCell id="100" style="edgeStyle=none;html=1;exitX=0;exitY=0.75;exitDx=0;exitDy=0;entryX=0.5;entryY=0;entryDx=0;entryDy=0;" edge="1" parent="1" source="94" target="95">
                    <mxGeometry relative="1" as="geometry"/>
                </mxCell>
                <mxCell id="101" style="edgeStyle=none;html=1;exitX=1;exitY=0.5;exitDx=0;exitDy=0;entryX=0.5;entryY=0;entryDx=0;entryDy=0;" edge="1" parent="1" source="94" target="96">
                    <mxGeometry relative="1" as="geometry">
                        <mxPoint x="531" y="2150" as="targetPoint"/>
                    </mxGeometry>
                </mxCell>
                <mxCell id="94" value="d = 1" style="shape=hexagon;perimeter=hexagonPerimeter2;whiteSpace=wrap;html=1;fixedSize=1;" vertex="1" parent="1">
                    <mxGeometry x="410" y="1880" width="120" height="80" as="geometry"/>
                </mxCell>
                <mxCell id="103" style="edgeStyle=none;html=1;" edge="1" parent="1" source="95" target="54">
                    <mxGeometry relative="1" as="geometry">
                        <mxPoint x="946" y="3060" as="targetPoint"/>
                        <Array as="points">
                            <mxPoint x="506" y="2990"/>
                        </Array>
                    </mxGeometry>
                </mxCell>
                <mxCell id="95" value="a week b days c Hour d Minuts&amp;nbsp;" style="shape=parallelogram;perimeter=parallelogramPerimeter;whiteSpace=wrap;html=1;fixedSize=1;" vertex="1" parent="1">
                    <mxGeometry x="240" y="2080" width="170" height="80" as="geometry"/>
                </mxCell>
                <mxCell id="102" style="edgeStyle=none;html=1;entryX=1;entryY=0;entryDx=0;entryDy=0;" edge="1" parent="1" source="96" target="54">
                    <mxGeometry relative="1" as="geometry">
                        <mxPoint x="686" y="2980" as="targetPoint"/>
                        <Array as="points">
                            <mxPoint x="716" y="3010"/>
                        </Array>
                    </mxGeometry>
                </mxCell>
                <mxCell id="96" value="a week b days&amp;nbsp; c hour d Minut" style="shape=parallelogram;perimeter=parallelogramPerimeter;whiteSpace=wrap;html=1;fixedSize=1;" vertex="1" parent="1">
                    <mxGeometry x="550" y="2060" width="160" height="70" as="geometry"/>
                </mxCell>
                <mxCell id="119" style="edgeStyle=none;html=1;entryX=0.5;entryY=0;entryDx=0;entryDy=0;exitX=0;exitY=0.5;exitDx=0;exitDy=0;" edge="1" parent="1" source="112" target="117">
                    <mxGeometry relative="1" as="geometry">
                        <mxPoint x="-96.24302788844625" y="810.0039442231075" as="sourcePoint"/>
                        <mxPoint x="-150" y="833.49" as="targetPoint"/>
                    </mxGeometry>
                </mxCell>
                <mxCell id="120" style="edgeStyle=none;html=1;exitX=1;exitY=0.5;exitDx=0;exitDy=0;entryX=0.5;entryY=0;entryDx=0;entryDy=0;" edge="1" parent="1" source="112" target="118">
                    <mxGeometry relative="1" as="geometry">
                        <mxPoint x="0.10601719197711645" y="814.2779656160458" as="sourcePoint"/>
                    </mxGeometry>
                </mxCell>
                <mxCell id="112" value="x &amp;gt;= 60" style="shape=hexagon;perimeter=hexagonPerimeter2;whiteSpace=wrap;html=1;fixedSize=1;" vertex="1" parent="1">
                    <mxGeometry x="-410" y="560" width="120" height="80" as="geometry"/>
                </mxCell>
                <mxCell id="125" style="edgeStyle=none;html=1;" edge="1" parent="1" source="117" target="47">
                    <mxGeometry relative="1" as="geometry">
                        <Array as="points">
                            <mxPoint x="-220" y="1150"/>
                        </Array>
                    </mxGeometry>
                </mxCell>
                <mxCell id="117" value="&lt;br&gt;d = x % 60" style="whiteSpace=wrap;html=1;" vertex="1" parent="1">
                    <mxGeometry x="-520" y="715" width="120" height="60" as="geometry"/>
                </mxCell>
                <mxCell id="126" style="edgeStyle=none;html=1;" edge="1" parent="1" source="118" target="47">
                    <mxGeometry relative="1" as="geometry">
                        <Array as="points">
                            <mxPoint x="-70" y="1070"/>
                        </Array>
                    </mxGeometry>
                </mxCell>
                <mxCell id="118" value="d = x" style="whiteSpace=wrap;html=1;" vertex="1" parent="1">
                    <mxGeometry x="-290" y="705" width="120" height="60" as="geometry"/>
                </mxCell>
                <mxCell id="127" style="edgeStyle=none;html=1;exitX=1;exitY=0.75;exitDx=0;exitDy=0;entryX=0.5;entryY=0;entryDx=0;entryDy=0;" edge="1" parent="1" source="129" target="139">
                    <mxGeometry relative="1" as="geometry">
                        <mxPoint x="601" y="490" as="targetPoint"/>
                    </mxGeometry>
                </mxCell>
                <mxCell id="128" style="edgeStyle=none;html=1;entryX=0.5;entryY=0;entryDx=0;entryDy=0;" edge="1" parent="1" source="129" target="131">
                    <mxGeometry relative="1" as="geometry"/>
                </mxCell>
                <mxCell id="129" value="x &amp;gt;= 3600" style="shape=hexagon;perimeter=hexagonPerimeter2;whiteSpace=wrap;html=1;fixedSize=1;" vertex="1" parent="1">
                    <mxGeometry x="198" y="450" width="100" height="40" as="geometry"/>
                </mxCell>
                <mxCell id="130" value="" style="edgeStyle=none;html=1;" edge="1" parent="1" source="131" target="134">
                    <mxGeometry relative="1" as="geometry"/>
                </mxCell>
                <mxCell id="131" value="c = x/3600&lt;br&gt;x = x%3600" style="whiteSpace=wrap;html=1;" vertex="1" parent="1">
                    <mxGeometry x="41" y="530" width="120" height="60" as="geometry"/>
                </mxCell>
                <mxCell id="132" style="edgeStyle=none;html=1;" edge="1" parent="1" source="134" target="135">
                    <mxGeometry relative="1" as="geometry">
                        <mxPoint x="-9" y="860" as="targetPoint"/>
                    </mxGeometry>
                </mxCell>
                <mxCell id="133" style="edgeStyle=none;html=1;entryX=0.611;entryY=0.019;entryDx=0;entryDy=0;entryPerimeter=0;" edge="1" parent="1" source="134" target="136">
                    <mxGeometry relative="1" as="geometry">
                        <mxPoint x="231" y="860" as="targetPoint"/>
                    </mxGeometry>
                </mxCell>
                <mxCell id="134" value="x &amp;gt;= 60" style="shape=hexagon;perimeter=hexagonPerimeter2;whiteSpace=wrap;html=1;fixedSize=1;" vertex="1" parent="1">
                    <mxGeometry x="-19" y="665" width="120" height="80" as="geometry"/>
                </mxCell>
                <mxCell id="142" style="edgeStyle=none;html=1;entryX=0.375;entryY=0;entryDx=0;entryDy=0;" edge="1" parent="1" source="135" target="47">
                    <mxGeometry relative="1" as="geometry"/>
                </mxCell>
                <mxCell id="135" value="c = x / 60&lt;br&gt;d = x % 60&lt;br&gt;" style="whiteSpace=wrap;html=1;" vertex="1" parent="1">
                    <mxGeometry x="-89" y="850" width="120" height="60" as="geometry"/>
                </mxCell>
                <mxCell id="143" style="edgeStyle=none;html=1;entryX=0.5;entryY=0;entryDx=0;entryDy=0;" edge="1" parent="1" source="136" target="47">
                    <mxGeometry relative="1" as="geometry"/>
                </mxCell>
                <mxCell id="136" value="d = x" style="whiteSpace=wrap;html=1;" vertex="1" parent="1">
                    <mxGeometry x="111" y="850" width="120" height="60" as="geometry"/>
                </mxCell>
                <mxCell id="137" style="edgeStyle=none;html=1;entryX=0.5;entryY=0;entryDx=0;entryDy=0;exitX=0;exitY=0.5;exitDx=0;exitDy=0;" edge="1" parent="1" source="139" target="140">
                    <mxGeometry relative="1" as="geometry">
                        <mxPoint x="634.7569721115538" y="780.0039442231075" as="sourcePoint"/>
                        <mxPoint x="581" y="803.49" as="targetPoint"/>
                    </mxGeometry>
                </mxCell>
                <mxCell id="138" style="edgeStyle=none;html=1;exitX=1;exitY=0.5;exitDx=0;exitDy=0;entryX=0.5;entryY=0;entryDx=0;entryDy=0;" edge="1" parent="1" source="139" target="141">
                    <mxGeometry relative="1" as="geometry">
                        <mxPoint x="731.1060171919771" y="784.2779656160458" as="sourcePoint"/>
                    </mxGeometry>
                </mxCell>
                <mxCell id="139" value="x &amp;gt;= 60" style="shape=hexagon;perimeter=hexagonPerimeter2;whiteSpace=wrap;html=1;fixedSize=1;" vertex="1" parent="1">
                    <mxGeometry x="321" y="530" width="120" height="80" as="geometry"/>
                </mxCell>
                <mxCell id="144" style="edgeStyle=none;html=1;" edge="1" parent="1" source="140" target="47">
                    <mxGeometry relative="1" as="geometry"/>
                </mxCell>
                <mxCell id="140" value="&lt;br&gt;d = x % 60" style="whiteSpace=wrap;html=1;" vertex="1" parent="1">
                    <mxGeometry x="211" y="685" width="120" height="60" as="geometry"/>
                </mxCell>
                <mxCell id="145" style="edgeStyle=none;html=1;entryX=0.5;entryY=0;entryDx=0;entryDy=0;" edge="1" parent="1" source="141" target="47">
                    <mxGeometry relative="1" as="geometry">
                        <mxPoint x="390" y="1330" as="targetPoint"/>
                    </mxGeometry>
                </mxCell>
                <mxCell id="141" value="d = x" style="whiteSpace=wrap;html=1;" vertex="1" parent="1">
                    <mxGeometry x="441" y="675" width="120" height="60" as="geometry"/>
                </mxCell>
                <mxCell id="180" style="edgeStyle=none;html=1;entryX=0.5;entryY=0;entryDx=0;entryDy=0;" edge="1" source="182" target="184" parent="1">
                    <mxGeometry relative="1" as="geometry">
                        <mxPoint x="-80" y="360" as="targetPoint"/>
                        <Array as="points">
                            <mxPoint x="-80" y="315"/>
                        </Array>
                    </mxGeometry>
                </mxCell>
                <mxCell id="181" value="" style="edgeStyle=none;html=1;entryX=0.375;entryY=0;entryDx=0;entryDy=0;" edge="1" source="182" target="200" parent="1">
                    <mxGeometry relative="1" as="geometry">
                        <mxPoint x="-27" y="360" as="targetPoint"/>
                        <Array as="points">
                            <mxPoint x="-30" y="330"/>
                        </Array>
                    </mxGeometry>
                </mxCell>
                <mxCell id="182" value="x &amp;gt;= 86400" style="shape=hexagon;perimeter=hexagonPerimeter2;whiteSpace=wrap;html=1;fixedSize=1;" vertex="1" parent="1">
                    <mxGeometry x="-189" y="300" width="100" height="30" as="geometry"/>
                </mxCell>
                <mxCell id="183" style="edgeStyle=none;html=1;exitX=0;exitY=0.5;exitDx=0;exitDy=0;entryX=1;entryY=0.5;entryDx=0;entryDy=0;" edge="1" source="184" target="187" parent="1">
                    <mxGeometry relative="1" as="geometry"/>
                </mxCell>
                <mxCell id="184" value="b=x/86400&lt;br&gt;x=x%86400" style="whiteSpace=wrap;html=1;" vertex="1" parent="1">
                    <mxGeometry x="-360" y="360" width="90" height="40" as="geometry"/>
                </mxCell>
                <mxCell id="185" style="edgeStyle=none;html=1;exitX=1;exitY=0.75;exitDx=0;exitDy=0;entryX=0.5;entryY=0;entryDx=0;entryDy=0;" edge="1" source="187" target="195" parent="1">
                    <mxGeometry relative="1" as="geometry">
                        <mxPoint x="-130" y="520" as="targetPoint"/>
                    </mxGeometry>
                </mxCell>
                <mxCell id="186" style="edgeStyle=none;html=1;entryX=0.5;entryY=0;entryDx=0;entryDy=0;" edge="1" source="187" target="189" parent="1">
                    <mxGeometry relative="1" as="geometry"/>
                </mxCell>
                <mxCell id="187" value="x &amp;gt;= 3600" style="shape=hexagon;perimeter=hexagonPerimeter2;whiteSpace=wrap;html=1;fixedSize=1;" vertex="1" parent="1">
                    <mxGeometry x="-533" y="480" width="100" height="40" as="geometry"/>
                </mxCell>
                <mxCell id="188" value="" style="edgeStyle=none;html=1;" edge="1" source="189" target="191" parent="1">
                    <mxGeometry relative="1" as="geometry"/>
                </mxCell>
                <mxCell id="189" value="c = x/3600&lt;br&gt;x = x%3600" style="whiteSpace=wrap;html=1;" vertex="1" parent="1">
                    <mxGeometry x="-690" y="560" width="120" height="60" as="geometry"/>
                </mxCell>
                <mxCell id="190" style="edgeStyle=none;html=1;entryX=0.611;entryY=0.019;entryDx=0;entryDy=0;entryPerimeter=0;" edge="1" source="191" target="192" parent="1">
                    <mxGeometry relative="1" as="geometry">
                        <mxPoint x="-500" y="890" as="targetPoint"/>
                    </mxGeometry>
                </mxCell>
                <mxCell id="191" value="x &amp;gt;= 60" style="shape=hexagon;perimeter=hexagonPerimeter2;whiteSpace=wrap;html=1;fixedSize=1;" vertex="1" parent="1">
                    <mxGeometry x="-750" y="695" width="120" height="80" as="geometry"/>
                </mxCell>
                <mxCell id="192" value="d = x" style="whiteSpace=wrap;html=1;" vertex="1" parent="1">
                    <mxGeometry x="-620" y="880" width="120" height="60" as="geometry"/>
                </mxCell>
                <mxCell id="193" style="edgeStyle=none;html=1;entryX=0.5;entryY=0;entryDx=0;entryDy=0;exitX=0;exitY=0.5;exitDx=0;exitDy=0;" edge="1" source="195" target="196" parent="1">
                    <mxGeometry relative="1" as="geometry">
                        <mxPoint x="-96.24302788844625" y="810.0039442231075" as="sourcePoint"/>
                        <mxPoint x="-150" y="833.49" as="targetPoint"/>
                    </mxGeometry>
                </mxCell>
                <mxCell id="194" style="edgeStyle=none;html=1;exitX=1;exitY=0.5;exitDx=0;exitDy=0;entryX=0.5;entryY=0;entryDx=0;entryDy=0;" edge="1" source="195" target="197" parent="1">
                    <mxGeometry relative="1" as="geometry">
                        <mxPoint x="0.10601719197711645" y="814.2779656160458" as="sourcePoint"/>
                    </mxGeometry>
                </mxCell>
                <mxCell id="195" value="x &amp;gt;= 60" style="shape=hexagon;perimeter=hexagonPerimeter2;whiteSpace=wrap;html=1;fixedSize=1;" vertex="1" parent="1">
                    <mxGeometry x="-410" y="560" width="120" height="80" as="geometry"/>
                </mxCell>
                <mxCell id="196" value="&lt;br&gt;d = x % 60" style="whiteSpace=wrap;html=1;" vertex="1" parent="1">
                    <mxGeometry x="-520" y="715" width="120" height="60" as="geometry"/>
                </mxCell>
                <mxCell id="197" value="d = x" style="whiteSpace=wrap;html=1;" vertex="1" parent="1">
                    <mxGeometry x="-290" y="705" width="120" height="60" as="geometry"/>
                </mxCell>
                <mxCell id="198" style="edgeStyle=none;html=1;exitX=1;exitY=0.75;exitDx=0;exitDy=0;entryX=0.5;entryY=0;entryDx=0;entryDy=0;" edge="1" source="200" target="210" parent="1">
                    <mxGeometry relative="1" as="geometry">
                        <mxPoint x="601" y="490" as="targetPoint"/>
                    </mxGeometry>
                </mxCell>
                <mxCell id="199" style="edgeStyle=none;html=1;entryX=0.5;entryY=0;entryDx=0;entryDy=0;" edge="1" source="200" target="202" parent="1">
                    <mxGeometry relative="1" as="geometry"/>
                </mxCell>
                <mxCell id="200" value="x &amp;gt;= 3600" style="shape=hexagon;perimeter=hexagonPerimeter2;whiteSpace=wrap;html=1;fixedSize=1;" vertex="1" parent="1">
                    <mxGeometry x="198" y="450" width="100" height="40" as="geometry"/>
                </mxCell>
                <mxCell id="201" value="" style="edgeStyle=none;html=1;" edge="1" source="202" target="205" parent="1">
                    <mxGeometry relative="1" as="geometry"/>
                </mxCell>
                <mxCell id="202" value="c = x/3600&lt;br&gt;x = x%3600" style="whiteSpace=wrap;html=1;" vertex="1" parent="1">
                    <mxGeometry x="41" y="530" width="120" height="60" as="geometry"/>
                </mxCell>
                <mxCell id="203" style="edgeStyle=none;html=1;" edge="1" source="205" target="206" parent="1">
                    <mxGeometry relative="1" as="geometry">
                        <mxPoint x="-9" y="860" as="targetPoint"/>
                    </mxGeometry>
                </mxCell>
                <mxCell id="204" style="edgeStyle=none;html=1;entryX=0.611;entryY=0.019;entryDx=0;entryDy=0;entryPerimeter=0;" edge="1" source="205" target="207" parent="1">
                    <mxGeometry relative="1" as="geometry">
                        <mxPoint x="231" y="860" as="targetPoint"/>
                    </mxGeometry>
                </mxCell>
                <mxCell id="205" value="x &amp;gt;= 60" style="shape=hexagon;perimeter=hexagonPerimeter2;whiteSpace=wrap;html=1;fixedSize=1;" vertex="1" parent="1">
                    <mxGeometry x="-19" y="665" width="120" height="80" as="geometry"/>
                </mxCell>
                <mxCell id="206" value="c = x / 60&lt;br&gt;d = x % 60&lt;br&gt;" style="whiteSpace=wrap;html=1;" vertex="1" parent="1">
                    <mxGeometry x="-89" y="850" width="120" height="60" as="geometry"/>
                </mxCell>
                <mxCell id="207" value="d = x" style="whiteSpace=wrap;html=1;" vertex="1" parent="1">
                    <mxGeometry x="111" y="850" width="120" height="60" as="geometry"/>
                </mxCell>
                <mxCell id="208" style="edgeStyle=none;html=1;entryX=0.5;entryY=0;entryDx=0;entryDy=0;exitX=0;exitY=0.5;exitDx=0;exitDy=0;" edge="1" source="210" target="211" parent="1">
                    <mxGeometry relative="1" as="geometry">
                        <mxPoint x="634.7569721115538" y="780.0039442231075" as="sourcePoint"/>
                        <mxPoint x="581" y="803.49" as="targetPoint"/>
                    </mxGeometry>
                </mxCell>
                <mxCell id="209" style="edgeStyle=none;html=1;exitX=1;exitY=0.5;exitDx=0;exitDy=0;entryX=0.5;entryY=0;entryDx=0;entryDy=0;" edge="1" source="210" target="212" parent="1">
                    <mxGeometry relative="1" as="geometry">
                        <mxPoint x="731.1060171919771" y="784.2779656160458" as="sourcePoint"/>
                    </mxGeometry>
                </mxCell>
                <mxCell id="210" value="x &amp;gt;= 60" style="shape=hexagon;perimeter=hexagonPerimeter2;whiteSpace=wrap;html=1;fixedSize=1;" vertex="1" parent="1">
                    <mxGeometry x="321" y="530" width="120" height="80" as="geometry"/>
                </mxCell>
                <mxCell id="211" value="&lt;br&gt;d = x % 60" style="whiteSpace=wrap;html=1;" vertex="1" parent="1">
                    <mxGeometry x="211" y="685" width="120" height="60" as="geometry"/>
                </mxCell>
                <mxCell id="212" value="d = x" style="whiteSpace=wrap;html=1;" vertex="1" parent="1">
                    <mxGeometry x="441" y="675" width="120" height="60" as="geometry"/>
                </mxCell>
                <mxCell id="328" value="" style="edgeStyle=none;html=1;entryX=0.375;entryY=0;entryDx=0;entryDy=0;" edge="1" parent="1" source="329" target="349">
                    <mxGeometry relative="1" as="geometry">
                        <mxPoint x="1663" y="350" as="targetPoint"/>
                        <Array as="points">
                            <mxPoint x="1660" y="320"/>
                        </Array>
                    </mxGeometry>
                </mxCell>
                <mxCell id="396" style="edgeStyle=none;html=1;exitX=0;exitY=0.5;exitDx=0;exitDy=0;entryX=0.5;entryY=0;entryDx=0;entryDy=0;" edge="1" parent="1" source="329" target="331">
                    <mxGeometry relative="1" as="geometry"/>
                </mxCell>
                <mxCell id="329" value="x &amp;gt;= 86400" style="shape=hexagon;perimeter=hexagonPerimeter2;whiteSpace=wrap;html=1;fixedSize=1;" vertex="1" parent="1">
                    <mxGeometry x="1501" y="290" width="100" height="30" as="geometry"/>
                </mxCell>
                <mxCell id="330" style="edgeStyle=none;html=1;exitX=0;exitY=0.5;exitDx=0;exitDy=0;entryX=1;entryY=0.5;entryDx=0;entryDy=0;" edge="1" parent="1" source="331" target="334">
                    <mxGeometry relative="1" as="geometry"/>
                </mxCell>
                <mxCell id="331" value="b=x/86400&lt;br&gt;x=x%86400" style="whiteSpace=wrap;html=1;" vertex="1" parent="1">
                    <mxGeometry x="1330" y="350" width="90" height="40" as="geometry"/>
                </mxCell>
                <mxCell id="333" style="edgeStyle=none;html=1;entryX=0.5;entryY=0;entryDx=0;entryDy=0;" edge="1" parent="1" source="334" target="336">
                    <mxGeometry relative="1" as="geometry"/>
                </mxCell>
                <mxCell id="334" value="x &amp;gt;= 3600" style="shape=hexagon;perimeter=hexagonPerimeter2;whiteSpace=wrap;html=1;fixedSize=1;" vertex="1" parent="1">
                    <mxGeometry x="1170" y="460" width="100" height="40" as="geometry"/>
                </mxCell>
                <mxCell id="335" value="" style="edgeStyle=none;html=1;" edge="1" parent="1" source="336" target="339">
                    <mxGeometry relative="1" as="geometry"/>
                </mxCell>
                <mxCell id="336" value="c = x/3600&lt;br&gt;x = x%3600" style="whiteSpace=wrap;html=1;" vertex="1" parent="1">
                    <mxGeometry x="970" y="530" width="120" height="60" as="geometry"/>
                </mxCell>
                <mxCell id="337" style="edgeStyle=none;html=1;" edge="1" parent="1" source="339" target="340">
                    <mxGeometry relative="1" as="geometry">
                        <mxPoint x="950" y="880" as="targetPoint"/>
                    </mxGeometry>
                </mxCell>
                <mxCell id="338" style="edgeStyle=none;html=1;entryX=0.611;entryY=0.019;entryDx=0;entryDy=0;entryPerimeter=0;" edge="1" parent="1" source="339" target="341">
                    <mxGeometry relative="1" as="geometry">
                        <mxPoint x="1190" y="880" as="targetPoint"/>
                    </mxGeometry>
                </mxCell>
                <mxCell id="339" value="x &amp;gt;= 60" style="shape=hexagon;perimeter=hexagonPerimeter2;whiteSpace=wrap;html=1;fixedSize=1;" vertex="1" parent="1">
                    <mxGeometry x="890" y="685" width="120" height="80" as="geometry"/>
                </mxCell>
                <mxCell id="397" style="edgeStyle=none;html=1;entryX=0.5;entryY=0;entryDx=0;entryDy=0;" edge="1" parent="1" source="340" target="47">
                    <mxGeometry relative="1" as="geometry"/>
                </mxCell>
                <mxCell id="340" value="c = x / 60&lt;br&gt;d = x % 60&lt;br&gt;" style="whiteSpace=wrap;html=1;" vertex="1" parent="1">
                    <mxGeometry x="726" y="860" width="120" height="60" as="geometry"/>
                </mxCell>
                <mxCell id="398" style="edgeStyle=none;html=1;entryX=0.625;entryY=0;entryDx=0;entryDy=0;" edge="1" parent="1" source="341" target="47">
                    <mxGeometry relative="1" as="geometry">
                        <mxPoint x="710" y="1360" as="targetPoint"/>
                    </mxGeometry>
                </mxCell>
                <mxCell id="341" value="d = x" style="whiteSpace=wrap;html=1;" vertex="1" parent="1">
                    <mxGeometry x="1010" y="860" width="120" height="60" as="geometry"/>
                </mxCell>
                <mxCell id="342" style="edgeStyle=none;html=1;entryX=0.5;entryY=0;entryDx=0;entryDy=0;exitX=0;exitY=0.5;exitDx=0;exitDy=0;" edge="1" parent="1" source="344" target="345">
                    <mxGeometry relative="1" as="geometry">
                        <mxPoint x="1593.7569721115538" y="800.0039442231075" as="sourcePoint"/>
                        <mxPoint x="1540" y="823.49" as="targetPoint"/>
                    </mxGeometry>
                </mxCell>
                <mxCell id="343" style="edgeStyle=none;html=1;exitX=1;exitY=0.5;exitDx=0;exitDy=0;entryX=0.5;entryY=0;entryDx=0;entryDy=0;" edge="1" parent="1" source="344" target="346">
                    <mxGeometry relative="1" as="geometry">
                        <mxPoint x="1690.1060171919771" y="804.2779656160458" as="sourcePoint"/>
                    </mxGeometry>
                </mxCell>
                <mxCell id="344" value="x &amp;gt;= 60" style="shape=hexagon;perimeter=hexagonPerimeter2;whiteSpace=wrap;html=1;fixedSize=1;" vertex="1" parent="1">
                    <mxGeometry x="1350" y="750" width="120" height="80" as="geometry"/>
                </mxCell>
                <mxCell id="399" style="edgeStyle=none;html=1;" edge="1" parent="1" source="345" target="47">
                    <mxGeometry relative="1" as="geometry">
                        <Array as="points">
                            <mxPoint x="1060" y="1110"/>
                        </Array>
                    </mxGeometry>
                </mxCell>
                <mxCell id="345" value="&lt;br&gt;d = x % 60" style="whiteSpace=wrap;html=1;" vertex="1" parent="1">
                    <mxGeometry x="1181" y="910" width="120" height="60" as="geometry"/>
                </mxCell>
                <mxCell id="401" style="edgeStyle=none;html=1;" edge="1" parent="1" source="346" target="47">
                    <mxGeometry relative="1" as="geometry">
                        <Array as="points">
                            <mxPoint x="1440" y="1180"/>
                        </Array>
                    </mxGeometry>
                </mxCell>
                <mxCell id="346" value="d = x" style="whiteSpace=wrap;html=1;" vertex="1" parent="1">
                    <mxGeometry x="1450" y="920" width="120" height="60" as="geometry"/>
                </mxCell>
                <mxCell id="347" style="edgeStyle=none;html=1;exitX=1;exitY=0.75;exitDx=0;exitDy=0;entryX=0.5;entryY=0;entryDx=0;entryDy=0;" edge="1" parent="1" source="349" target="359">
                    <mxGeometry relative="1" as="geometry">
                        <mxPoint x="2291" y="480" as="targetPoint"/>
                    </mxGeometry>
                </mxCell>
                <mxCell id="348" style="edgeStyle=none;html=1;entryX=0.5;entryY=0;entryDx=0;entryDy=0;" edge="1" parent="1" source="349" target="351">
                    <mxGeometry relative="1" as="geometry"/>
                </mxCell>
                <mxCell id="349" value="x &amp;gt;= 3600" style="shape=hexagon;perimeter=hexagonPerimeter2;whiteSpace=wrap;html=1;fixedSize=1;" vertex="1" parent="1">
                    <mxGeometry x="2160" y="490" width="100" height="40" as="geometry"/>
                </mxCell>
                <mxCell id="350" value="" style="edgeStyle=none;html=1;" edge="1" parent="1" source="351" target="354">
                    <mxGeometry relative="1" as="geometry"/>
                </mxCell>
                <mxCell id="351" value="c = x/3600&lt;br&gt;x = x%3600" style="whiteSpace=wrap;html=1;" vertex="1" parent="1">
                    <mxGeometry x="1900" y="597.5" width="120" height="60" as="geometry"/>
                </mxCell>
                <mxCell id="352" style="edgeStyle=none;html=1;" edge="1" parent="1" source="354" target="355">
                    <mxGeometry relative="1" as="geometry">
                        <mxPoint x="1681" y="850" as="targetPoint"/>
                    </mxGeometry>
                </mxCell>
                <mxCell id="353" style="edgeStyle=none;html=1;entryX=0.611;entryY=0.019;entryDx=0;entryDy=0;entryPerimeter=0;" edge="1" parent="1" source="354" target="356">
                    <mxGeometry relative="1" as="geometry">
                        <mxPoint x="1921" y="850" as="targetPoint"/>
                    </mxGeometry>
                </mxCell>
                <mxCell id="354" value="x &amp;gt;= 60" style="shape=hexagon;perimeter=hexagonPerimeter2;whiteSpace=wrap;html=1;fixedSize=1;" vertex="1" parent="1">
                    <mxGeometry x="1900" y="765" width="120" height="80" as="geometry"/>
                </mxCell>
                <mxCell id="400" style="edgeStyle=none;html=1;" edge="1" parent="1" source="355" target="47">
                    <mxGeometry relative="1" as="geometry">
                        <Array as="points">
                            <mxPoint x="1570" y="1250"/>
                        </Array>
                    </mxGeometry>
                </mxCell>
                <mxCell id="355" value="c = x / 60&lt;br&gt;d = x % 60&lt;br&gt;" style="whiteSpace=wrap;html=1;" vertex="1" parent="1">
                    <mxGeometry x="1750" y="910" width="120" height="60" as="geometry"/>
                </mxCell>
                <mxCell id="402" style="edgeStyle=none;html=1;entryX=1;entryY=0.5;entryDx=0;entryDy=0;" edge="1" parent="1" source="356" target="47">
                    <mxGeometry relative="1" as="geometry">
                        <Array as="points">
                            <mxPoint x="1740" y="1320"/>
                        </Array>
                    </mxGeometry>
                </mxCell>
                <mxCell id="356" value="d = x" style="whiteSpace=wrap;html=1;" vertex="1" parent="1">
                    <mxGeometry x="2010" y="900" width="120" height="60" as="geometry"/>
                </mxCell>
                <mxCell id="357" style="edgeStyle=none;html=1;entryX=0.5;entryY=0;entryDx=0;entryDy=0;exitX=0;exitY=0.5;exitDx=0;exitDy=0;" edge="1" parent="1" source="359" target="360">
                    <mxGeometry relative="1" as="geometry">
                        <mxPoint x="2503.7569721115538" y="1042.5039442231075" as="sourcePoint"/>
                        <mxPoint x="2450" y="1065.99" as="targetPoint"/>
                    </mxGeometry>
                </mxCell>
                <mxCell id="358" style="edgeStyle=none;html=1;exitX=1;exitY=0.5;exitDx=0;exitDy=0;entryX=0.5;entryY=0;entryDx=0;entryDy=0;" edge="1" parent="1" source="359" target="361">
                    <mxGeometry relative="1" as="geometry">
                        <mxPoint x="2600.106017191977" y="1046.7779656160458" as="sourcePoint"/>
                    </mxGeometry>
                </mxCell>
                <mxCell id="359" value="x &amp;gt;= 60" style="shape=hexagon;perimeter=hexagonPerimeter2;whiteSpace=wrap;html=1;fixedSize=1;" vertex="1" parent="1">
                    <mxGeometry x="2370" y="810" width="120" height="80" as="geometry"/>
                </mxCell>
                <mxCell id="403" style="edgeStyle=none;html=1;entryX=1;entryY=0.25;entryDx=0;entryDy=0;" edge="1" parent="1" source="360" target="47">
                    <mxGeometry relative="1" as="geometry">
                        <Array as="points">
                            <mxPoint x="1760" y="1340"/>
                        </Array>
                    </mxGeometry>
                </mxCell>
                <mxCell id="360" value="&lt;br&gt;d = x % 60" style="whiteSpace=wrap;html=1;" vertex="1" parent="1">
                    <mxGeometry x="2130" y="1000" width="120" height="60" as="geometry"/>
                </mxCell>
                <mxCell id="404" style="edgeStyle=none;html=1;" edge="1" parent="1" source="361" target="47">
                    <mxGeometry relative="1" as="geometry">
                        <Array as="points">
                            <mxPoint x="1970" y="1420"/>
                        </Array>
                    </mxGeometry>
                </mxCell>
                <mxCell id="361" value="d = x" style="whiteSpace=wrap;html=1;" vertex="1" parent="1">
                    <mxGeometry x="2410" y="1080" width="120" height="60" as="geometry"/>
                </mxCell>
                <mxCell id="367" style="edgeStyle=none;html=1;exitX=1;exitY=0.5;exitDx=0;exitDy=0;entryX=0.5;entryY=0;entryDx=0;entryDy=0;" edge="1" parent="1" source="334" target="344">
                    <mxGeometry relative="1" as="geometry">
                        <mxPoint x="1420" y="597.5" as="targetPoint"/>
                        <mxPoint x="1328.666666666667" y="545.833333333333" as="sourcePoint"/>
                    </mxGeometry>
                </mxCell>
            </root>
        </mxGraphModel>
    </diagram>
</mxfile>